<?xml version="1.0" encoding="UTF-8" standalone="no"?>
<!DOCTYPE svg PUBLIC "-//W3C//DTD SVG 1.1//EN"
 "http://www.w3.org/Graphics/SVG/1.1/DTD/svg11.dtd">
<!-- Generated by graphviz version 2.38.0 (20140413.2041)
 -->
<!-- Title: %3 Pages: 1 -->
<svg width="720pt" height="720pt"
 viewBox="0.00 0.00 720.00 720.00" xmlns="http://www.w3.org/2000/svg" xmlns:xlink="http://www.w3.org/1999/xlink">
<g id="graph0" class="graph" transform="scale(0.989011 0.989011) rotate(0) translate(4 724)">
<title>%3</title>
<polygon fill="white" stroke="none" points="-4,4 -4,-724 724,-724 724,4 -4,4"/>
<!-- a1 -->
<g id="node1" class="node"><title>a1</title>
<path fill="none" stroke="black" stroke-width="2" d="M402.442,-445.775C402.442,-445.775 444.442,-445.775 444.442,-445.775 450.442,-445.775 456.442,-451.775 456.442,-457.775 456.442,-457.775 456.442,-469.775 456.442,-469.775 456.442,-475.775 450.442,-481.775 444.442,-481.775 444.442,-481.775 402.442,-481.775 402.442,-481.775 396.442,-481.775 390.442,-475.775 390.442,-469.775 390.442,-469.775 390.442,-457.775 390.442,-457.775 390.442,-451.775 396.442,-445.775 402.442,-445.775"/>
</g>
<!-- a3 -->
<g id="node2" class="node"><title>a3</title>
<path fill="none" stroke="black" stroke-width="2" d="M383.577,-296.09C383.577,-296.09 425.577,-296.09 425.577,-296.09 431.577,-296.09 437.577,-302.09 437.577,-308.09 437.577,-308.09 437.577,-320.09 437.577,-320.09 437.577,-326.09 431.577,-332.09 425.577,-332.09 425.577,-332.09 383.577,-332.09 383.577,-332.09 377.577,-332.09 371.577,-326.09 371.577,-320.09 371.577,-320.09 371.577,-308.09 371.577,-308.09 371.577,-302.09 377.577,-296.09 383.577,-296.09"/>
</g>
<!-- a1&#45;&gt;a3 -->
<g id="edge1" class="edge"><title>a1&#45;&gt;a3</title>
<path fill="none" stroke="gainsboro" d="M425.73,-445.746C425.125,-420.032 419.459,-372.594 413.622,-342.231"/>
<polygon fill="gainsboro" stroke="gainsboro" points="417.014,-341.349 411.558,-332.267 410.159,-342.769 417.014,-341.349"/>
</g>
<!-- a6 -->
<g id="node3" class="node"><title>a6</title>
<path fill="none" stroke="black" stroke-width="2" d="M610.434,-344.109C610.434,-344.109 652.434,-344.109 652.434,-344.109 658.434,-344.109 664.434,-350.109 664.434,-356.109 664.434,-356.109 664.434,-368.109 664.434,-368.109 664.434,-374.109 658.434,-380.109 652.434,-380.109 652.434,-380.109 610.434,-380.109 610.434,-380.109 604.434,-380.109 598.434,-374.109 598.434,-368.109 598.434,-368.109 598.434,-356.109 598.434,-356.109 598.434,-350.109 604.434,-344.109 610.434,-344.109"/>
</g>
<!-- a1&#45;&gt;a6 -->
<g id="edge2" class="edge"><title>a1&#45;&gt;a6</title>
<path fill="none" stroke="gainsboro" d="M456.769,-453.031C494.995,-436.833 557.345,-406.485 596.309,-385.211"/>
<polygon fill="gainsboro" stroke="gainsboro" points="598.154,-388.19 605.204,-380.281 594.761,-382.067 598.154,-388.19"/>
</g>
<!-- a3&#45;&gt;a1 -->
<g id="edge5" class="edge"><title>a3&#45;&gt;a1</title>
<path fill="none" stroke="gainsboro" d="M402.289,-332.12C402.894,-357.833 408.56,-405.272 414.397,-435.634"/>
<polygon fill="gainsboro" stroke="gainsboro" points="411.005,-436.516 416.46,-445.598 417.859,-435.096 411.005,-436.516"/>
</g>
<!-- a3&#45;&gt;a6 -->
<g id="edge7" class="edge"><title>a3&#45;&gt;a6</title>
<path fill="none" stroke="gainsboro" d="M437.994,-326.284C477.819,-336.949 544.445,-351.181 588.17,-358.459"/>
<polygon fill="gainsboro" stroke="gainsboro" points="587.791,-361.943 598.219,-360.07 588.899,-355.031 587.791,-361.943"/>
</g>
<!-- a2 -->
<g id="node4" class="node"><title>a2</title>
<path fill="none" stroke="black" stroke-width="2" d="M167.219,-442.139C167.219,-442.139 209.219,-442.139 209.219,-442.139 215.219,-442.139 221.219,-448.139 221.219,-454.139 221.219,-454.139 221.219,-466.139 221.219,-466.139 221.219,-472.139 215.219,-478.139 209.219,-478.139 209.219,-478.139 167.219,-478.139 167.219,-478.139 161.219,-478.139 155.219,-472.139 155.219,-466.139 155.219,-466.139 155.219,-454.139 155.219,-454.139 155.219,-448.139 161.219,-442.139 167.219,-442.139"/>
</g>
<!-- a3&#45;&gt;a2 -->
<g id="edge6" class="edge"><title>a3&#45;&gt;a2</title>
<path fill="none" stroke="gainsboro" d="M371.31,-330.667C328.648,-356.44 255.545,-405.793 215.811,-435.651"/>
<polygon fill="gainsboro" stroke="gainsboro" points="213.223,-433.223 207.397,-442.072 217.47,-438.788 213.223,-433.223"/>
</g>
<!-- a9 -->
<g id="node6" class="node"><title>a9</title>
<path fill="none" stroke="black" stroke-width="2" d="M266.098,-141.303C266.098,-141.303 308.098,-141.303 308.098,-141.303 314.098,-141.303 320.098,-147.303 320.098,-153.303 320.098,-153.303 320.098,-165.303 320.098,-165.303 320.098,-171.303 314.098,-177.303 308.098,-177.303 308.098,-177.303 266.098,-177.303 266.098,-177.303 260.098,-177.303 254.098,-171.303 254.098,-165.303 254.098,-165.303 254.098,-153.303 254.098,-153.303 254.098,-147.303 260.098,-141.303 266.098,-141.303"/>
</g>
<!-- a3&#45;&gt;a9 -->
<g id="edge8" class="edge"><title>a3&#45;&gt;a9</title>
<path fill="none" stroke="gainsboro" d="M396.071,-295.812C378.854,-268.404 340.147,-216.769 313.733,-185.417"/>
<polygon fill="gainsboro" stroke="gainsboro" points="316.137,-182.843 306.971,-177.529 310.823,-187.399 316.137,-182.843"/>
</g>
<!-- a6&#45;&gt;a1 -->
<g id="edge12" class="edge"><title>a6&#45;&gt;a1</title>
<path fill="none" stroke="gainsboro" d="M598.107,-372.853C559.881,-389.051 497.531,-419.399 458.567,-440.673"/>
<polygon fill="gainsboro" stroke="gainsboro" points="456.722,-437.694 449.672,-445.603 460.115,-443.817 456.722,-437.694"/>
</g>
<!-- a6&#45;&gt;a3 -->
<g id="edge13" class="edge"><title>a6&#45;&gt;a3</title>
<path fill="none" stroke="gainsboro" d="M598.016,-349.915C558.192,-339.25 491.566,-325.018 447.841,-317.74"/>
<polygon fill="gainsboro" stroke="gainsboro" points="448.22,-314.256 437.792,-316.129 447.112,-321.168 448.22,-314.256"/>
</g>
<!-- a7 -->
<g id="node7" class="node"><title>a7</title>
<path fill="none" stroke="black" stroke-width="2" d="M607.977,-490.98C607.977,-490.98 649.977,-490.98 649.977,-490.98 655.977,-490.98 661.977,-496.98 661.977,-502.98 661.977,-502.98 661.977,-514.98 661.977,-514.98 661.977,-520.98 655.977,-526.98 649.977,-526.98 649.977,-526.98 607.977,-526.98 607.977,-526.98 601.977,-526.98 595.977,-520.98 595.977,-514.98 595.977,-514.98 595.977,-502.98 595.977,-502.98 595.977,-496.98 601.977,-490.98 607.977,-490.98"/>
</g>
<!-- a6&#45;&gt;a7 -->
<g id="edge14" class="edge"><title>a6&#45;&gt;a7</title>
<path fill="none" stroke="gainsboro" d="M626.485,-380.335C623.555,-405.497 622.524,-451.112 624.001,-480.715"/>
<polygon fill="gainsboro" stroke="gainsboro" points="620.517,-481.078 624.66,-490.829 627.502,-480.623 620.517,-481.078"/>
</g>
<!-- a2&#45;&gt;a3 -->
<g id="edge3" class="edge"><title>a2&#45;&gt;a3</title>
<path fill="none" stroke="gainsboro" d="M221.485,-443.563C264.148,-417.789 337.251,-368.436 376.984,-338.578"/>
<polygon fill="gainsboro" stroke="gainsboro" points="379.572,-341.006 385.399,-332.157 375.326,-335.441 379.572,-341.006"/>
</g>
<!-- a4 -->
<g id="node5" class="node"><title>a4</title>
<path fill="none" stroke="black" stroke-width="2" d="M353.783,-649.215C353.783,-649.215 395.783,-649.215 395.783,-649.215 401.783,-649.215 407.783,-655.215 407.783,-661.215 407.783,-661.215 407.783,-673.215 407.783,-673.215 407.783,-679.215 401.783,-685.215 395.783,-685.215 395.783,-685.215 353.783,-685.215 353.783,-685.215 347.783,-685.215 341.783,-679.215 341.783,-673.215 341.783,-673.215 341.783,-661.215 341.783,-661.215 341.783,-655.215 347.783,-649.215 353.783,-649.215"/>
</g>
<!-- a2&#45;&gt;a4 -->
<g id="edge4" class="edge"><title>a2&#45;&gt;a4</title>
<path fill="none" stroke="gainsboro" d="M199.438,-478.229C228.034,-515.321 303.545,-599.655 345.613,-642.038"/>
<polygon fill="gainsboro" stroke="gainsboro" points="343.253,-644.627 352.811,-649.199 348.19,-639.665 343.253,-644.627"/>
</g>
<!-- a4&#45;&gt;a2 -->
<g id="edge9" class="edge"><title>a4&#45;&gt;a2</title>
<path fill="none" stroke="gainsboro" d="M363.564,-649.125C334.968,-612.033 259.457,-527.699 217.389,-485.316"/>
<polygon fill="gainsboro" stroke="gainsboro" points="219.749,-482.726 210.191,-478.155 214.812,-487.689 219.749,-482.726"/>
</g>
<!-- a4&#45;&gt;a7 -->
<g id="edge10" class="edge"><title>a4&#45;&gt;a7</title>
<path fill="none" stroke="gainsboro" d="M407.868,-652.02C457.733,-624.342 551.287,-566.142 599.16,-533.052"/>
<polygon fill="gainsboro" stroke="gainsboro" points="601.364,-535.782 607.547,-527.178 597.348,-530.048 601.364,-535.782"/>
</g>
<!-- a9&#45;&gt;a3 -->
<g id="edge18" class="edge"><title>a9&#45;&gt;a3</title>
<path fill="none" stroke="gainsboro" d="M295.603,-177.581C312.821,-204.989 351.527,-256.624 377.941,-287.977"/>
<polygon fill="gainsboro" stroke="gainsboro" points="375.537,-290.551 384.703,-295.864 380.852,-285.994 375.537,-290.551"/>
</g>
<!-- a5 -->
<g id="node8" class="node"><title>a5</title>
<path fill="none" stroke="red" stroke-width="2" d="M67.7399,-174.188C67.7399,-174.188 109.74,-174.188 109.74,-174.188 115.74,-174.188 121.74,-180.188 121.74,-186.188 121.74,-186.188 121.74,-198.188 121.74,-198.188 121.74,-204.188 115.74,-210.188 109.74,-210.188 109.74,-210.188 67.7399,-210.188 67.7399,-210.188 61.7399,-210.188 55.7399,-204.188 55.7399,-198.188 55.7399,-198.188 55.7399,-186.188 55.7399,-186.188 55.7399,-180.188 61.7399,-174.188 67.7399,-174.188"/>
</g>
<!-- a9&#45;&gt;a5 -->
<g id="edge19" class="edge"><title>a9&#45;&gt;a5</title>
<path fill="none" stroke="gainsboro" d="M253.946,-159.588C220.416,-163.188 168.442,-171.61 131.756,-179.261"/>
<polygon fill="gainsboro" stroke="gainsboro" points="130.883,-175.869 121.843,-181.394 132.355,-182.712 130.883,-175.869"/>
</g>
<!-- a8 -->
<g id="node9" class="node"><title>a8</title>
<path fill="none" stroke="black" stroke-width="2" d="M480.487,-32.6905C480.487,-32.6905 522.487,-32.6905 522.487,-32.6905 528.487,-32.6905 534.487,-38.6905 534.487,-44.6905 534.487,-44.6905 534.487,-56.6905 534.487,-56.6905 534.487,-62.6905 528.487,-68.6905 522.487,-68.6905 522.487,-68.6905 480.487,-68.6905 480.487,-68.6905 474.487,-68.6905 468.487,-62.6905 468.487,-56.6905 468.487,-56.6905 468.487,-44.6905 468.487,-44.6905 468.487,-38.6905 474.487,-32.6905 480.487,-32.6905"/>
</g>
<!-- a9&#45;&gt;a8 -->
<g id="edge20" class="edge"><title>a9&#45;&gt;a8</title>
<path fill="none" stroke="gainsboro" d="M320.499,-147.906C360.443,-130.274 426.894,-96.7228 467.217,-73.9155"/>
<polygon fill="gainsboro" stroke="gainsboro" points="469.209,-76.8077 476.14,-68.7939 465.725,-70.7367 469.209,-76.8077"/>
</g>
<!-- a7&#45;&gt;a6 -->
<g id="edge16" class="edge"><title>a7&#45;&gt;a6</title>
<path fill="none" stroke="gainsboro" d="M633.927,-490.753C636.856,-465.592 637.887,-419.977 636.41,-390.374"/>
<polygon fill="gainsboro" stroke="gainsboro" points="639.894,-390.011 635.752,-380.26 632.909,-390.466 639.894,-390.011"/>
</g>
<!-- a7&#45;&gt;a4 -->
<g id="edge15" class="edge"><title>a7&#45;&gt;a4</title>
<path fill="none" stroke="gainsboro" d="M595.893,-524.175C546.027,-551.852 452.473,-610.052 404.6,-643.143"/>
<polygon fill="gainsboro" stroke="gainsboro" points="402.397,-640.413 396.214,-649.016 406.413,-646.146 402.397,-640.413"/>
</g>
<!-- a5&#45;&gt;a9 -->
<g id="edge11" class="edge"><title>a5&#45;&gt;a9</title>
<path fill="none" stroke="blue" d="M121.892,-191.903C155.422,-188.303 207.396,-179.881 244.081,-172.23"/>
<polygon fill="blue" stroke="blue" points="244.955,-175.622 253.995,-170.097 243.482,-168.778 244.955,-175.622"/>
<text text-anchor="middle" x="217.486" y="-185.466" font-family="Times,serif" font-size="12.00">0</text>
</g>
<!-- a8&#45;&gt;a9 -->
<g id="edge17" class="edge"><title>a8&#45;&gt;a9</title>
<path fill="none" stroke="gainsboro" d="M468.085,-62.0876C428.141,-79.7191 361.691,-113.271 321.367,-136.078"/>
<polygon fill="gainsboro" stroke="gainsboro" points="319.375,-133.186 312.445,-141.2 322.86,-139.257 319.375,-133.186"/>
</g>
</g>
</svg>
